<mxfile host="app.diagrams.net" modified="2024-01-05T11:49:55.127Z" agent="Mozilla/5.0 (Windows NT 10.0; Win64; x64) AppleWebKit/537.36 (KHTML, like Gecko) Chrome/120.0.0.0 Safari/537.36" version="22.1.16" etag="4zI0kB0ZCILgcI_7ydFp" type="github">
  <diagram name="第 1 页" id="uXuXigYcGKK0z1_0J7-1">
    <mxGraphModel>
      <root>
        <mxCell id="0" />
        <mxCell id="1" parent="0" />
      </root>
    </mxGraphModel>
  </diagram>
</mxfile>
